<?xml version="1.0"?>
<svg viewBox="0 0 664.6 210.7" xmlns="http://www.w3.org/2000/svg">
<path d="M82,85.6h-41v-39h33c4.4,0,8-3.6,8-8V5.6h39v41c0,21.6-17.5,39-39,39ZM41,89.6H0v39h33c4.4,0,8,3.6,8,8v33h39v-41c0-21.6-17.5-39-39-39ZM172.1,87.6c-4.4,0-8-3.6-8-8v-33h-39v41c0,21.6,17.5,39,39,39h41v-39h-33ZM84,169.6v41h39v-33c0-4.4,3.6-8,8-8h33v-39h-41c-21.6,0-39,17.5-39,39Z M469.5,33.3h-38.9V5.5h38.9v27.8ZM439.2,56.4h-23.4v29.2h20.4c3.4,0,6.2,2.8,6.2,6.2v118.9h30.8v-121.1c0-21.5-13.9-33.2-33.9-33.2h-.1ZM345.1,5.5l76.2,205.1h-32.4l-20.2-54.5h-95.3l-20.2,54.5h-32.1L297.3,5.5h47.8ZM359.2,130.6l-38.1-102.6-38.1,102.6h76.2,0ZM545.9,185.1l62.6-49.4c36.4-28.7,52.4-48.7,52.4-76.2S642.7,0,587.8,0s-88.2,44.6-88.2,85.6h33.3c0-37,16.4-59.4,54.9-59.4s39.8,16.5,39.8,33.6-4.6,25.9-22.5,40.4l-104.9,84.8v25.6h164.4v-25.6h-118.8l.1.1Z" style="fill:#F0529C" />
</svg>